<?xml version="1.0" standalone="no"?><!DOCTYPE svg PUBLIC "-//W3C//DTD SVG 1.1//EN" "http://www.w3.org/Graphics/SVG/1.1/DTD/svg11.dtd"><svg t="1628918431427" class="icon" viewBox="0 0 1024 1024" version="1.1" xmlns="http://www.w3.org/2000/svg" p-id="6872" xmlns:xlink="http://www.w3.org/1999/xlink" width="48" height="48"><defs><style type="text/css"></style></defs><path d="M361.472 488.448H215.04c-67.584 0-122.88-55.296-122.88-122.88V219.136c0-67.584 55.296-122.88 122.88-122.88h146.432c67.584 0 122.88 55.296 122.88 122.88v146.432c0 67.584-54.272 122.88-122.88 122.88zM215.04 178.176c-22.528 0-40.96 18.432-40.96 40.96v146.432c0 22.528 18.432 40.96 40.96 40.96h146.432c22.528 0 40.96-18.432 40.96-40.96V219.136c0-22.528-18.432-40.96-40.96-40.96H215.04zM808.96 488.448H662.528c-67.584 0-122.88-55.296-122.88-122.88V219.136c0-67.584 55.296-122.88 122.88-122.88H808.96c67.584 0 122.88 55.296 122.88 122.88v146.432c0 67.584-55.296 122.88-122.88 122.88zM662.528 178.176c-22.528 0-40.96 18.432-40.96 40.96v146.432c0 22.528 18.432 40.96 40.96 40.96H808.96c22.528 0 40.96-18.432 40.96-40.96V219.136c0-22.528-18.432-40.96-40.96-40.96H662.528zM808.96 927.744H662.528c-67.584 0-122.88-55.296-122.88-122.88V658.432c0-67.584 55.296-122.88 122.88-122.88H808.96c67.584 0 122.88 55.296 122.88 122.88v146.432c0 67.584-55.296 122.88-122.88 122.88zM662.528 617.472c-22.528 0-40.96 18.432-40.96 40.96v146.432c0 22.528 18.432 40.96 40.96 40.96H808.96c22.528 0 40.96-18.432 40.96-40.96V658.432c0-22.528-18.432-40.96-40.96-40.96H662.528zM361.472 927.744H215.04c-67.584 0-122.88-55.296-122.88-122.88V658.432c0-67.584 55.296-122.88 122.88-122.88h146.432c67.584 0 122.88 55.296 122.88 122.88v146.432c0 67.584-54.272 122.88-122.88 122.88zM215.04 617.472c-22.528 0-40.96 18.432-40.96 40.96v146.432c0 22.528 18.432 40.96 40.96 40.96h146.432c22.528 0 40.96-18.432 40.96-40.96V658.432c0-22.528-18.432-40.96-40.96-40.96H215.04z" fill="#55bb8a" p-id="6873"></path></svg>