<?xml version="1.0" standalone="no"?><!DOCTYPE svg PUBLIC "-//W3C//DTD SVG 1.1//EN" "http://www.w3.org/Graphics/SVG/1.1/DTD/svg11.dtd"><svg t="1628918200685" class="icon" viewBox="0 0 1024 1024" version="1.1" xmlns="http://www.w3.org/2000/svg" p-id="5128" width="48" height="48" xmlns:xlink="http://www.w3.org/1999/xlink"><defs><style type="text/css"></style></defs><path d="M780.190476 938.934857 243.809524 938.934857c-67.218286 0-121.904762-54.686476-121.904762-121.904762l0-219.428571L109.714286 597.601524c-47.055238 0-85.333333-38.278095-85.333333-85.333333 0-23.478857 9.435429-45.397333 26.599619-61.732571L435.46819 115.98019c19.431619-19.529143 46.933333-30.915048 76.190476-30.915048 29.257143 0 56.758857 11.385905 77.433905 32.060952L973.994667 451.535238C991.036952 468.967619 999.619048 490.057143 999.619048 512.26819c0 47.030857-38.278095 85.333333-85.333333 85.333333L902.095238 597.601524l0 219.428571C902.095238 884.248381 847.408762 938.934857 780.190476 938.934857zM511.658667 133.827048c-16.237714 0-31.47581 6.314667-42.959238 17.773714L83.797333 486.595048C77.214476 492.885333 73.142857 502.272 73.142857 512.26819c0 20.163048 16.408381 36.571429 36.571429 36.571429L170.666667 548.839619l0 268.190476c0 40.326095 32.816762 73.142857 73.142857 73.142857l536.380952 0c40.326095 0 73.142857-32.816762 73.142857-73.142857l0-268.190476 60.952381 0c20.163048 0 36.571429-16.408381 36.571429-36.571429 0-9.48419-3.657143-18.480762-10.361905-25.380571L555.861333 152.771048C543.134476 140.141714 527.896381 133.827048 511.658667 133.827048z" p-id="5129"></path></svg>